<?xml version="1.0" encoding="utf-8"?>
<!-- Generated by IcoMoon.io -->
<!DOCTYPE svg PUBLIC "-//W3C//DTD SVG 1.1//EN" "http://www.w3.org/Graphics/SVG/1.1/DTD/svg11.dtd">
<svg version="1.1" xmlns="http://www.w3.org/2000/svg" xmlns:xlink="http://www.w3.org/1999/xlink" width="768" height="768" viewBox="0 0 768 768">
<path d="M544.5 576q25.5 0 44.25 19.5t18.75 45-18.75 44.25-44.25 18.75-45-18.75-19.5-44.25 19.5-45 45-19.5zM31.5 64.5h105l30 63h474q13.5 0 22.5 9.75t9 23.25q0 7.5-4.5 15l-114 207q-18 33-55.5 33h-238.5l-28.5 52.5-1.5 4.5q0 7.5 7.5 7.5h370.5v64.5h-384q-25.5 0-44.25-19.5t-18.75-45q0-15 7.5-30l43.5-79.5-115.5-243h-64.5v-63zM223.5 576q25.5 0 45 19.5t19.5 45-19.5 44.25-45 18.75-44.25-18.75-18.75-44.25 18.75-45 44.25-19.5z"></path>
</svg>
